SourceSerif_Black.ufo
<glyph name="J" format="1">
	<unicode hex="004A"/>
	<advance width="404"/>
	<outline>
		<contour>
			<point x="107" y="652" type="line"/>
			<point x="111" y="373"/>
			<point x="115" y="163"/>
			<point x="115" y="49" type="curve" smooth="yes"/>
			<point x="115" y="-40"/>
			<point x="111" y="-97"/>
			<point x="96" y="-125" type="curve"/>
			<point x="93" y="-136" type="line"/>
			<point x="101" y="-140" type="line"/>
			<point x="114" y="-135" type="line"/>
			<point x="82" y="-90" type="line" smooth="yes"/>
			<point x="50" y="-46"/>
			<point x="22" y="-24"/>
			<point x="-16" y="-24" type="curve" smooth="yes"/>
			<point x="-65" y="-24"/>
			<point x="-103" y="-59"/>
			<point x="-103" y="-108" type="curve"/>
			<point x="-74" y="-154"/>
			<point x="-31" y="-177"/>
			<point x="31" y="-177" type="curve" smooth="yes"/>
			<point x="125" y="-177"/>
			<point x="204" y="-129"/>
			<point x="251" y="-48" type="curve" smooth="yes"/>
			<point x="291" y="22"/>
			<point x="308" y="125"/>
			<point x="308" y="272" type="curve" smooth="yes"/>
			<point x="308" y="355" type="line" smooth="yes"/>
			<point x="308" y="455"/>
			<point x="308" y="555"/>
			<point x="311" y="652" type="curve"/>
		</contour>
		<contour>
			<point x="30" y="593" type="line"/>
			<point x="177" y="578" type="line"/>
			<point x="223" y="578" type="line"/>
			<point x="379" y="593" type="line"/>
			<point x="379" y="652" type="line"/>
			<point x="30" y="652" type="line"/>
		</contour>
		<contour>
			<point name="aboveUC" x="203" y="682" type="move"/>
		</contour>
		<contour>
			<point name="belowLC" x="117" y="-169" type="move"/>
		</contour>
	</outline>
</glyph>
<glyph name="T" format="1">
	<unicode hex="0054"/>
	<advance width="646"/>
	<outline>
		<contour>
			<point x="295" y="74" type="line"/>
			<point x="144" y="59" type="line"/>
			<point x="144" y="0" type="line"/>
			<point x="503" y="0" type="line"/>
			<point x="503" y="59" type="line"/>
			<point x="348" y="74" type="line"/>
		</contour>
		<contour>
			<point x="224" y="310" type="line" smooth="yes"/>
			<point x="224" y="205"/>
			<point x="224" y="101"/>
			<point x="221" y="0" type="curve"/>
			<point x="425" y="0" type="line"/>
			<point x="422" y="103"/>
			<point x="422" y="207"/>
			<point x="422" y="311" type="curve" smooth="yes"/>
			<point x="422" y="342" type="line" smooth="yes"/>
			<point x="422" y="447"/>
			<point x="422" y="551"/>
			<point x="425" y="652" type="curve"/>
			<point x="221" y="652" type="line"/>
			<point x="224" y="549"/>
			<point x="224" y="445"/>
			<point x="224" y="342" type="curve" smooth="yes"/>
		</contour>
		<contour>
			<point x="591" y="593" type="line"/>
			<point x="509" y="652" type="line"/>
			<point x="533" y="463" type="line"/>
			<point x="626" y="463" type="line"/>
			<point x="625" y="652" type="line"/>
			<point x="22" y="652" type="line"/>
			<point x="20" y="463" type="line"/>
			<point x="114" y="463" type="line"/>
			<point x="138" y="652" type="line"/>
			<point x="55" y="593" type="line"/>
		</contour>
		<contour>
			<point name="aboveUC" x="323" y="682" type="move"/>
		</contour>
		<contour>
			<point name="belowLC" x="323" y="-22" type="move"/>
		</contour>
		<contour>
			<point name="baseLC" x="323" y="0" type="move"/>
		</contour>
	</outline>
</glyph>
<glyph name="Y" format="1">
	<unicode hex="0059"/>
	<advance width="621"/>
	<outline>
		<contour>
			<point x="285" y="74" type="line"/>
			<point x="134" y="59" type="line"/>
			<point x="134" y="0" type="line"/>
			<point x="493" y="0" type="line"/>
			<point x="493" y="59" type="line"/>
			<point x="338" y="74" type="line"/>
		</contour>
		<contour>
			<point x="165" y="578" type="line"/>
			<point x="218" y="578" type="line"/>
			<point x="344" y="593" type="line"/>
			<point x="344" y="652" type="line"/>
			<point x="5" y="652" type="line"/>
			<point x="5" y="593" type="line"/>
		</contour>
		<contour>
			<point x="536" y="578" type="line"/>
			<point x="621" y="593" type="line"/>
			<point x="621" y="652" type="line"/>
			<point x="423" y="652" type="line"/>
			<point x="423" y="593" type="line"/>
			<point x="511" y="578" type="line"/>
		</contour>
		<contour>
			<point x="211" y="0" type="curve"/>
			<point x="415" y="0" type="line"/>
			<point x="412" y="93"/>
			<point x="412" y="148"/>
			<point x="412" y="313" type="curve"/>
			<point x="214" y="313" type="line"/>
			<point x="214" y="146"/>
			<point x="214" y="91"/>
		</contour>
		<contour>
			<point x="371" y="211" type="line"/>
			<point x="590" y="652" type="line"/>
			<point x="516" y="652" type="line"/>
			<point x="363" y="316" type="line"/>
			<point x="393" y="322" type="line"/>
			<point x="247" y="652" type="line"/>
			<point x="21" y="652" type="line"/>
			<point x="236" y="211" type="line"/>
		</contour>
		<contour>
			<point name="aboveUC" x="357" y="682" type="move"/>
		</contour>
		<contour>
			<point name="belowLC" x="310" y="-22" type="move"/>
		</contour>
	</outline>
</glyph>
<glyph name="y" format="1">
	<unicode hex="0079"/>
	<advance width="543"/>
	<outline>
		<contour>
			<point x="446" y="425" type="line"/>
			<point x="538" y="440" type="line"/>
			<point x="538" y="487" type="line"/>
			<point x="352" y="487" type="line"/>
			<point x="352" y="440" type="line"/>
			<point x="427" y="425" type="line"/>
		</contour>
		<contour>
			<point x="220" y="424" type="line"/>
			<point x="298" y="441" type="line"/>
			<point x="298" y="487" type="line"/>
			<point x="-5" y="487" type="line"/>
			<point x="-5" y="440" type="line"/>
			<point x="83" y="424" type="line"/>
		</contour>
		<contour>
			<point x="343" y="137" type="line"/>
			<point x="218" y="487" type="line"/>
			<point x="15" y="487" type="line"/>
			<point x="256" y="-67" type="line"/>
		</contour>
		<contour>
			<point x="109" y="-232" type="curve" smooth="yes"/>
			<point x="206" y="-232"/>
			<point x="247" y="-167"/>
			<point x="289" y="-59" type="curve" smooth="yes"/>
			<point x="500" y="487" type="line"/>
			<point x="430" y="487" type="line"/>
			<point x="308" y="137" type="line"/>
			<point x="247" y="-39" type="line" smooth="yes"/>
			<point x="224" y="-105"/>
			<point x="183" y="-154"/>
			<point x="143" y="-181" type="curve"/>
			<point x="175" y="-196" type="line"/>
			<point x="212" y="-181" type="line"/>
			<point x="181" y="-130" type="line" smooth="yes"/>
			<point x="154" y="-86"/>
			<point x="117" y="-80"/>
			<point x="90" y="-80" type="curve" smooth="yes"/>
			<point x="47" y="-80"/>
			<point x="10" y="-103"/>
			<point x="1" y="-153" type="curve"/>
			<point x="6" y="-197"/>
			<point x="54" y="-232"/>
		</contour>
		<contour>
			<point name="aboveLC" x="300" y="520" type="move"/>
		</contour>
		<contour>
			<point name="belowLC" x="153" y="-240" type="move"/>
		</contour>
	</outline>
</glyph>
<glyph name="gscript" format="1">
	<unicode hex="0261"/>
	<advance width="592"/>
	<outline>
		<contour>
			<point x="161" y="-169" type="curve"/>
			<point x="202" y="-198" type="line"/>
			<point x="186" y="-135" type="line" smooth="yes"/>
			<point x="163" y="-45"/>
			<point x="144" y="-16"/>
			<point x="103" y="-16" type="curve" smooth="yes"/>
			<point x="64" y="-16"/>
			<point x="40" y="-30"/>
			<point x="26" y="-73" type="curve"/>
			<point x="26" y="-152"/>
			<point x="112" y="-232"/>
			<point x="244" y="-232" type="curve" smooth="yes"/>
			<point x="346" y="-232"/>
			<point x="419" y="-204"/>
			<point x="469" y="-152" type="curve" smooth="yes"/>
			<point x="530" y="-90"/>
			<point x="545" y="-19"/>
			<point x="545" y="109" type="curve" smooth="yes"/>
			<point x="545" y="358" type="line"/>
			<point x="548" y="493" type="line"/>
			<point x="513" y="503" type="line"/>
			<point x="355" y="437" type="line"/>
			<point x="355" y="85" type="line" smooth="yes"/>
			<point x="355" y="23"/>
			<point x="354" y="-51"/>
			<point x="332" y="-93" type="curve" smooth="yes"/>
			<point x="301" y="-153"/>
			<point x="264" y="-178"/>
			<point x="213" y="-178" type="curve" smooth="yes"/>
			<point x="199" y="-178"/>
			<point x="180" y="-174"/>
		</contour>
		<contour>
			<point x="220" y="-16" type="curve" smooth="yes"/>
			<point x="292" y="-16"/>
			<point x="347" y="14"/>
			<point x="394" y="84" type="curve"/>
			<point x="375" y="109" type="line"/>
			<point x="357" y="93"/>
			<point x="337" y="83"/>
			<point x="314" y="83" type="curve" smooth="yes"/>
			<point x="260" y="83"/>
			<point x="224" y="123"/>
			<point x="224" y="241" type="curve" smooth="yes"/>
			<point x="224" y="359"/>
			<point x="267" y="407"/>
			<point x="326" y="407" type="curve" smooth="yes"/>
			<point x="345" y="407"/>
			<point x="364" y="401"/>
			<point x="384" y="388" type="curve"/>
			<point x="409" y="416" type="line"/>
			<point x="367" y="476"/>
			<point x="321" y="503"/>
			<point x="261" y="503" type="curve" smooth="yes"/>
			<point x="136" y="503"/>
			<point x="31" y="405"/>
			<point x="31" y="226" type="curve" smooth="yes"/>
			<point x="31" y="63"/>
			<point x="115" y="-16"/>
		</contour>
		<contour>
			<point name="aboveLC" x="326" y="520" type="move"/>
		</contour>
		<contour>
			<point name="belowLC" x="296" y="-226" type="move"/>
		</contour>
	</outline>
</glyph>
<glyph name="ringhalfrightmod" format="1">
	<unicode hex="02BE"/>
	<advance width="180"/>
	<outline>
		<contour>
			<point x="20" y="554" type="line"/>
			<point x="109" y="554"/>
			<point x="160" y="601"/>
			<point x="160" y="674" type="curve" smooth="yes"/>
			<point x="160" y="747"/>
			<point x="109" y="794"/>
			<point x="20" y="794" type="curve"/>
			<point x="20" y="738" type="line"/>
			<point x="63" y="738"/>
			<point x="86" y="707"/>
			<point x="86" y="674" type="curve" smooth="yes"/>
			<point x="86" y="643"/>
			<point x="63" y="610"/>
			<point x="20" y="610" type="curve"/>
		</contour>
	</outline>
</glyph>
<glyph name="ring" format="1">
	<unicode hex="02DA"/>
	<advance width="400"/>
	<outline>
		<component base="ringcmb" xOffset="200"/>
		<contour>
			<point name="_aboveLC" x="200" y="520" type="move"/>
		</contour>
	</outline>
</glyph>
<glyph name="tilde" format="1">
	<unicode hex="02DC"/>
	<advance width="400"/>
	<outline>
		<component base="tildecmb" xOffset="202"/>
		<contour>
			<point name="_aboveLC" x="202" y="520" type="move"/>
		</contour>
	</outline>
</glyph>
<glyph name="hungarumlaut" format="1">
	<unicode hex="02DD"/>
	<advance width="400"/>
	<outline>
		<component base="hungarumlautcmb" xOffset="180"/>
		<contour>
			<point name="_aboveLC" x="181" y="520" type="move"/>
		</contour>
	</outline>
</glyph>
<glyph name="acutecmb" format="1">
	<unicode hex="0301"/>
	<outline>
		<contour>
			<point x="-79" y="587" type="curve"/>
			<point x="-36" y="552" type="line"/>
			<point x="-16" y="565"/>
			<point x="4" y="579"/>
			<point x="70" y="625" type="curve" smooth="yes"/>
			<point x="114" y="656"/>
			<point x="145" y="685"/>
			<point x="145" y="721" type="curve" smooth="yes"/>
			<point x="145" y="760"/>
			<point x="114" y="784"/>
			<point x="84" y="784" type="curve" smooth="yes"/>
			<point x="45" y="784"/>
			<point x="25" y="762"/>
			<point x="-5" y="712" type="curve" smooth="yes"/>
			<point x="-52" y="634"/>
			<point x="-66" y="611"/>
		</contour>
		<contour>
			<point name="_aboveLC" x="0" y="520" type="move"/>
		</contour>
	</outline>
</glyph>
<glyph name="dieresiscmb" format="1">
	<unicode hex="0308"/>
	<outline>
		<contour>
			<point x="126" y="567" type="curve" smooth="yes"/>
			<point x="171" y="567"/>
			<point x="210" y="595"/>
			<point x="210" y="646" type="curve" smooth="yes"/>
			<point x="210" y="696"/>
			<point x="171" y="725"/>
			<point x="126" y="725" type="curve" smooth="yes"/>
			<point x="83" y="725"/>
			<point x="42" y="696"/>
			<point x="42" y="646" type="curve" smooth="yes"/>
			<point x="42" y="595"/>
			<point x="83" y="567"/>
		</contour>
		<contour>
			<point x="-126" y="567" type="curve" smooth="yes"/>
			<point x="-81" y="567"/>
			<point x="-42" y="595"/>
			<point x="-42" y="646" type="curve" smooth="yes"/>
			<point x="-42" y="696"/>
			<point x="-81" y="725"/>
			<point x="-126" y="725" type="curve" smooth="yes"/>
			<point x="-169" y="725"/>
			<point x="-210" y="696"/>
			<point x="-210" y="646" type="curve" smooth="yes"/>
			<point x="-210" y="595"/>
			<point x="-169" y="567"/>
		</contour>
		<contour>
			<point name="_aboveLC" x="0" y="520" type="move"/>
		</contour>
		<contour>
			<point name="aboveLC" x="0" y="730" type="move"/>
		</contour>
	</outline>
</glyph>
<glyph name="tonos" format="1">
	<unicode hex="0384"/>
	<advance width="400"/>
	<outline>
		<component base="tonoscmb" xOffset="190" yOffset="10"/>
		<contour>
			<point name="_aboveLC" x="166" y="520" type="move"/>
		</contour>
	</outline>
</glyph>
<glyph name="Psi" format="1">
	<unicode hex="03A8"/>
	<advance width="852"/>
	<outline>
		<contour>
			<point x="74" y="487" type="line" smooth="yes"/>
			<point x="101" y="314"/>
			<point x="152" y="229"/>
			<point x="426" y="229" type="curve" smooth="yes"/>
			<point x="700" y="229"/>
			<point x="751" y="314"/>
			<point x="778" y="487" type="curve" smooth="yes"/>
			<point x="786" y="539" type="line" smooth="yes"/>
			<point x="791" y="572"/>
			<point x="804" y="590"/>
			<point x="840" y="592" type="curve" smooth="yes"/>
			<point x="857" y="593" type="line"/>
			<point x="857" y="652" type="line"/>
			<point x="799" y="652" type="line" smooth="yes"/>
			<point x="682" y="652"/>
			<point x="631" y="616"/>
			<point x="618" y="512" type="curve" smooth="yes"/>
			<point x="611" y="457" type="line" smooth="yes"/>
			<point x="595" y="330"/>
			<point x="574" y="282"/>
			<point x="426" y="282" type="curve" smooth="yes"/>
			<point x="278" y="282"/>
			<point x="257" y="330"/>
			<point x="241" y="457" type="curve" smooth="yes"/>
			<point x="234" y="512" type="line" smooth="yes"/>
			<point x="221" y="616"/>
			<point x="170" y="652"/>
			<point x="53" y="652" type="curve" smooth="yes"/>
			<point x="-5" y="652" type="line"/>
			<point x="-5" y="593" type="line"/>
			<point x="12" y="592" type="line" smooth="yes"/>
			<point x="48" y="590"/>
			<point x="61" y="572"/>
			<point x="66" y="539" type="curve" smooth="yes"/>
		</contour>
		<contour>
			<point x="266" y="0" type="line"/>
			<point x="586" y="0" type="line"/>
			<point x="586" y="59" type="line"/>
			<point x="441" y="74" type="line"/>
			<point x="408" y="74" type="line"/>
			<point x="266" y="59" type="line"/>
		</contour>
		<contour>
			<point x="286" y="593" type="line"/>
			<point x="408" y="578" type="line"/>
			<point x="441" y="578" type="line"/>
			<point x="566" y="593" type="line"/>
			<point x="566" y="652" type="line"/>
			<point x="286" y="652" type="line"/>
		</contour>
		<contour>
			<point x="334" y="0" type="curve"/>
			<point x="518" y="0" type="line"/>
			<point x="515" y="103"/>
			<point x="515" y="207"/>
			<point x="515" y="311" type="curve" smooth="yes"/>
			<point x="515" y="342" type="line" smooth="yes"/>
			<point x="515" y="447"/>
			<point x="515" y="551"/>
			<point x="518" y="652" type="curve"/>
			<point x="334" y="652" type="line"/>
			<point x="337" y="549"/>
			<point x="337" y="445"/>
			<point x="337" y="342" type="curve" smooth="yes"/>
			<point x="337" y="310" type="line" smooth="yes"/>
			<point x="337" y="205"/>
			<point x="337" y="101"/>
		</contour>
	</outline>
</glyph>
<glyph name="delta" format="1">
	<unicode hex="03B4"/>
	<advance width="547"/>
	<outline>
		<contour>
			<point x="26" y="240" type="curve" smooth="yes"/>
			<point x="26" y="90"/>
			<point x="115" y="-16"/>
			<point x="278" y="-16" type="curve" smooth="yes"/>
			<point x="430" y="-16"/>
			<point x="521" y="93"/>
			<point x="521" y="243" type="curve" smooth="yes"/>
			<point x="521" y="365"/>
			<point x="456" y="437"/>
			<point x="338" y="508" type="curve" smooth="yes"/>
			<point x="257" y="558"/>
			<point x="197" y="597"/>
			<point x="197" y="625" type="curve" smooth="yes"/>
			<point x="197" y="653"/>
			<point x="217" y="665"/>
			<point x="268" y="665" type="curve" smooth="yes"/>
			<point x="289" y="665"/>
			<point x="304" y="662"/>
			<point x="320" y="658" type="curve"/>
			<point x="320" y="683" type="line"/>
			<point x="245" y="683" type="line"/>
			<point x="335" y="595" type="line" smooth="yes"/>
			<point x="354" y="576"/>
			<point x="382" y="561"/>
			<point x="415" y="561" type="curve" smooth="yes"/>
			<point x="467" y="561"/>
			<point x="491" y="591"/>
			<point x="493" y="625" type="curve"/>
			<point x="478" y="684"/>
			<point x="387" y="721"/>
			<point x="280" y="721" type="curve" smooth="yes"/>
			<point x="153" y="721"/>
			<point x="80" y="685"/>
			<point x="80" y="608" type="curve" smooth="yes"/>
			<point x="80" y="553"/>
			<point x="136" y="508"/>
			<point x="212" y="454" type="curve"/>
			<point x="228" y="439" type="line"/>
			<point x="308" y="389"/>
			<point x="355" y="292"/>
			<point x="355" y="184" type="curve" smooth="yes"/>
			<point x="355" y="86"/>
			<point x="332" y="48"/>
			<point x="298" y="48" type="curve" smooth="yes"/>
			<point x="246" y="48"/>
			<point x="202" y="155"/>
			<point x="202" y="292" type="curve" smooth="yes"/>
			<point x="202" y="382"/>
			<point x="234" y="438"/>
			<point x="276" y="445" type="curve"/>
			<point x="255" y="478" type="line"/>
			<point x="131" y="468"/>
			<point x="26" y="369"/>
		</contour>
	</outline>
</glyph>
<glyph name="zeta" format="1">
	<unicode hex="03B6"/>
	<advance width="464"/>
	<outline>
		<contour>
			<point x="152" y="-213" type="line"/>
			<point x="354" y="-211"/>
			<point x="452" y="-112"/>
			<point x="452" y="-14" type="curve" smooth="yes"/>
			<point x="452" y="51"/>
			<point x="420" y="104"/>
			<point x="334" y="126" type="curve" smooth="yes"/>
			<point x="291" y="137" type="line" smooth="yes"/>
			<point x="229" y="153"/>
			<point x="199" y="180"/>
			<point x="199" y="237" type="curve" smooth="yes"/>
			<point x="199" y="329"/>
			<point x="309" y="487"/>
			<point x="437" y="628" type="curve"/>
			<point x="424" y="713" type="line"/>
			<point x="46" y="723" type="line"/>
			<point x="46" y="567" type="line"/>
			<point x="348" y="588" type="line"/>
			<point x="363" y="650" type="line"/>
			<point x="134" y="435"/>
			<point x="35" y="296"/>
			<point x="35" y="173" type="curve" smooth="yes"/>
			<point x="35" y="91"/>
			<point x="87" y="32"/>
			<point x="190" y="9" type="curve" smooth="yes"/>
			<point x="256" y="-6" type="line" smooth="yes"/>
			<point x="308" y="-18"/>
			<point x="326" y="-33"/>
			<point x="326" y="-61" type="curve" smooth="yes"/>
			<point x="326" y="-90"/>
			<point x="295" y="-122"/>
			<point x="143" y="-130" type="curve"/>
		</contour>
	</outline>
</glyph>
<glyph name="stigma" format="1">
	<unicode hex="03DB"/>
	<advance width="500"/>
	<outline>
		<contour>
			<point x="149" y="-213" type="line"/>
			<point x="351" y="-211"/>
			<point x="449" y="-112"/>
			<point x="449" y="-14" type="curve" smooth="yes"/>
			<point x="449" y="47"/>
			<point x="420" y="97"/>
			<point x="333" y="125" type="curve" smooth="yes"/>
			<point x="213" y="164" type="line" smooth="yes"/>
			<point x="136" y="189"/>
			<point x="117" y="204"/>
			<point x="117" y="245" type="curve" smooth="yes"/>
			<point x="117" y="287"/>
			<point x="139" y="314"/>
			<point x="233" y="320" type="curve" smooth="yes"/>
			<point x="295" y="324" type="line" smooth="yes"/>
			<point x="410" y="330"/>
			<point x="445" y="361"/>
			<point x="486" y="535" type="curve" smooth="yes"/>
			<point x="498" y="586" type="line"/>
			<point x="428" y="597" type="line"/>
			<point x="414" y="556" type="line" smooth="yes"/>
			<point x="403" y="523"/>
			<point x="394" y="496"/>
			<point x="335" y="490" type="curve" smooth="yes"/>
			<point x="243" y="480" type="line" smooth="yes"/>
			<point x="128" y="467"/>
			<point x="32" y="416"/>
			<point x="32" y="229" type="curve" smooth="yes"/>
			<point x="32" y="94"/>
			<point x="99" y="33"/>
			<point x="198" y="8" type="curve" smooth="yes"/>
			<point x="253" y="-6" type="line" smooth="yes"/>
			<point x="303" y="-19"/>
			<point x="323" y="-40"/>
			<point x="323" y="-63" type="curve" smooth="yes"/>
			<point x="323" y="-91"/>
			<point x="292" y="-122"/>
			<point x="140" y="-130" type="curve"/>
		</contour>
	</outline>
</glyph>
<glyph name="ef" format="1">
	<unicode hex="0444"/>
	<advance width="840"/>
	<outline>
		<contour>
			<point x="275" y="-222" type="line"/>
			<point x="562" y="-222" type="line"/>
			<point x="562" y="-170" type="line"/>
			<point x="489" y="-150" type="line"/>
			<point x="372" y="-150" type="line"/>
			<point x="275" y="-170" type="line"/>
		</contour>
		<contour>
			<point x="329" y="-222" type="curve"/>
			<point x="508" y="-222" type="line"/>
			<point x="506" y="-126"/>
			<point x="505" y="-53"/>
			<point x="505" y="8" type="curve"/>
			<point x="508" y="34" type="line"/>
			<point x="508" y="561" type="line"/>
			<point x="512" y="700" type="line"/>
			<point x="495" y="711" type="line"/>
			<point x="275" y="666" type="line"/>
			<point x="275" y="621" type="line"/>
			<point x="339" y="611" type="line"/>
			<point x="339" y="479" type="line"/>
			<point x="332" y="469" type="line"/>
			<point x="332" y="8" type="line" smooth="yes"/>
			<point x="332" y="-53"/>
			<point x="331" y="-126"/>
		</contour>
		<contour>
			<point x="567" y="503" type="curve" smooth="yes"/>
			<point x="501" y="503"/>
			<point x="445" y="472"/>
			<point x="420" y="435" type="curve"/>
			<point x="420" y="388" type="line"/>
			<point x="456" y="419"/>
			<point x="485" y="448"/>
			<point x="533" y="448" type="curve" smooth="yes"/>
			<point x="603" y="448"/>
			<point x="638" y="381"/>
			<point x="638" y="244" type="curve" smooth="yes"/>
			<point x="638" y="107"/>
			<point x="603" y="39"/>
			<point x="532" y="39" type="curve" smooth="yes"/>
			<point x="485" y="39"/>
			<point x="456" y="68"/>
			<point x="420" y="98" type="curve"/>
			<point x="420" y="53" type="line"/>
			<point x="445" y="16"/>
			<point x="502" y="-16"/>
			<point x="567" y="-16" type="curve" smooth="yes"/>
			<point x="734" y="-16"/>
			<point x="818" y="95"/>
			<point x="818" y="247" type="curve" smooth="yes"/>
			<point x="818" y="399"/>
			<point x="734" y="503"/>
		</contour>
		<contour>
			<point x="273" y="-16" type="curve" smooth="yes"/>
			<point x="339" y="-16"/>
			<point x="395" y="15"/>
			<point x="420" y="52" type="curve"/>
			<point x="420" y="99" type="line"/>
			<point x="384" y="68"/>
			<point x="355" y="39"/>
			<point x="307" y="39" type="curve" smooth="yes"/>
			<point x="237" y="39"/>
			<point x="202" y="106"/>
			<point x="202" y="243" type="curve" smooth="yes"/>
			<point x="202" y="380"/>
			<point x="237" y="448"/>
			<point x="308" y="448" type="curve" smooth="yes"/>
			<point x="355" y="448"/>
			<point x="384" y="419"/>
			<point x="420" y="389" type="curve"/>
			<point x="420" y="434" type="line"/>
			<point x="395" y="471"/>
			<point x="338" y="503"/>
			<point x="273" y="503" type="curve" smooth="yes"/>
			<point x="106" y="503"/>
			<point x="22" y="392"/>
			<point x="22" y="240" type="curve" smooth="yes"/>
			<point x="22" y="88"/>
			<point x="106" y="-16"/>
		</contour>
	</outline>
</glyph>
<glyph name="numero" format="1">
	<unicode hex="2116"/>
	<advance width="1044"/>
	<outline>
		<contour>
			<point x="93" y="-16" type="curve" smooth="yes"/>
			<point x="129" y="-16"/>
			<point x="152" y="-4"/>
			<point x="172" y="28" type="curve" smooth="yes"/>
			<point x="196" y="67"/>
			<point x="213" y="146"/>
			<point x="213" y="293" type="curve" smooth="yes"/>
			<point x="213" y="564" type="line"/>
			<point x="163" y="624" type="line"/>
			<point x="163" y="269" type="line" smooth="yes"/>
			<point x="163" y="158"/>
			<point x="149" y="106"/>
			<point x="127" y="68" type="curve"/>
			<point x="185" y="101" type="line"/>
			<point x="140" y="133"/>
			<point x="119" y="137"/>
			<point x="97" y="137" type="curve" smooth="yes"/>
			<point x="47" y="137"/>
			<point x="20" y="107"/>
			<point x="10" y="79" type="curve"/>
			<point x="10" y="10"/>
			<point x="49" y="-16"/>
		</contour>
		<contour>
			<point x="630" y="661" type="curve" smooth="yes"/>
			<point x="594" y="661"/>
			<point x="571" y="648"/>
			<point x="551" y="617" type="curve" smooth="yes"/>
			<point x="526" y="578"/>
			<point x="510" y="491"/>
			<point x="510" y="349" type="curve" smooth="yes"/>
			<point x="510" y="60" type="line"/>
			<point x="560" y="0" type="line"/>
			<point x="560" y="376" type="line" smooth="yes"/>
			<point x="560" y="487"/>
			<point x="572" y="545"/>
			<point x="594" y="577" type="curve"/>
			<point x="538" y="544" type="line"/>
			<point x="583" y="512"/>
			<point x="604" y="508"/>
			<point x="626" y="508" type="curve" smooth="yes"/>
			<point x="676" y="508"/>
			<point x="703" y="538"/>
			<point x="713" y="573" type="curve"/>
			<point x="713" y="635"/>
			<point x="674" y="661"/>
		</contour>
		<contour>
			<point x="455" y="0" type="line"/>
			<point x="560" y="0" type="line"/>
			<point x="560" y="165" type="line"/>
			<point x="303" y="624" type="line"/>
			<point x="64" y="624" type="line"/>
			<point x="64" y="564" type="line"/>
			<point x="182" y="557" type="line"/>
			<point x="116" y="587" type="line"/>
		</contour>
		<contour>
			<point x="665" y="0" type="line"/>
			<point x="996" y="0" type="line"/>
			<point x="996" y="100" type="line"/>
			<point x="665" y="100" type="line"/>
		</contour>
		<contour>
			<point x="830" y="451" type="curve" smooth="yes"/>
			<point x="867" y="451"/>
			<point x="886" y="410"/>
			<point x="886" y="318" type="curve" smooth="yes"/>
			<point x="886" y="225"/>
			<point x="867" y="184"/>
			<point x="830" y="184" type="curve" smooth="yes"/>
			<point x="793" y="184"/>
			<point x="775" y="225"/>
			<point x="775" y="318" type="curve" smooth="yes"/>
			<point x="775" y="410"/>
			<point x="793" y="451"/>
		</contour>
		<contour>
			<point x="830" y="485" type="curve" smooth="yes"/>
			<point x="732" y="485"/>
			<point x="657" y="420"/>
			<point x="657" y="319" type="curve" smooth="yes"/>
			<point x="657" y="219"/>
			<point x="723" y="150"/>
			<point x="830" y="150" type="curve" smooth="yes"/>
			<point x="938" y="150"/>
			<point x="1004" y="217"/>
			<point x="1004" y="319" type="curve" smooth="yes"/>
			<point x="1004" y="421"/>
			<point x="929" y="485"/>
		</contour>
	</outline>
</glyph>
<glyph name="f_f" format="1">
	<unicode hex="FB00"/>
	<advance width="685"/>
	<outline>
		<contour>
			<point x="71" y="0" type="curve"/>
			<point x="267" y="0" type="line"/>
			<point x="265" y="70"/>
			<point x="264" y="140"/>
			<point x="264" y="210" type="curve" smooth="yes"/>
			<point x="264" y="431" type="line"/>
			<point x="257" y="535"/>
			<point x="258" y="604"/>
			<point x="287" y="655" type="curve" smooth="yes"/>
			<point x="300" y="676"/>
			<point x="323" y="699"/>
			<point x="361" y="707" type="curve"/>
			<point x="281" y="707" type="line"/>
			<point x="300" y="662" type="line" smooth="yes"/>
			<point x="324" y="608"/>
			<point x="354" y="585"/>
			<point x="400" y="585" type="curve" smooth="yes"/>
			<point x="445" y="585"/>
			<point x="462" y="615"/>
			<point x="462" y="656" type="curve"/>
			<point x="450" y="713"/>
			<point x="396" y="731"/>
			<point x="340" y="731" type="curve" smooth="yes"/>
			<point x="281" y="731"/>
			<point x="221" y="712"/>
			<point x="165" y="663" type="curve" smooth="yes"/>
			<point x="125" y="628"/>
			<point x="84" y="574"/>
			<point x="74" y="459" type="curve"/>
			<point x="138" y="493" type="line"/>
			<point x="17" y="478" type="line"/>
			<point x="17" y="412" type="line"/>
			<point x="74" y="412" type="line"/>
			<point x="74" y="210" type="line" smooth="yes"/>
			<point x="74" y="140"/>
			<point x="73" y="70"/>
		</contour>
		<contour>
			<point x="27" y="0" type="line"/>
			<point x="322" y="0" type="line"/>
			<point x="322" y="51" type="line"/>
			<point x="254" y="71" type="line"/>
			<point x="120" y="71" type="line"/>
			<point x="27" y="51" type="line"/>
		</contour>
		<contour>
			<point x="170" y="412" type="line"/>
			<point x="490" y="412" type="line"/>
			<point x="490" y="487" type="line"/>
			<point x="170" y="487" type="line"/>
		</contour>
		<component base="f" xOffset="320"/>
	</outline>
</glyph>
<glyph name="f_i" format="1">
	<unicode hex="FB01"/>
	<advance width="634"/>
	<outline>
		<contour>
			<point x="71" y="0" type="curve"/>
			<point x="267" y="0" type="line"/>
			<point x="265" y="70"/>
			<point x="264" y="140"/>
			<point x="264" y="210" type="curve" smooth="yes"/>
			<point x="264" y="431" type="line" smooth="yes"/>
			<point x="264" y="576"/>
			<point x="285" y="612"/>
			<point x="335" y="660" type="curve" smooth="yes"/>
			<point x="369" y="691"/>
			<point x="397" y="703"/>
			<point x="427" y="710" type="curve"/>
			<point x="349" y="696" type="line"/>
			<point x="366" y="663" type="line" smooth="yes"/>
			<point x="399" y="600"/>
			<point x="429" y="574"/>
			<point x="468" y="574" type="curve" smooth="yes"/>
			<point x="515" y="574"/>
			<point x="542" y="607"/>
			<point x="542" y="652" type="curve"/>
			<point x="529" y="712"/>
			<point x="472" y="731"/>
			<point x="406" y="731" type="curve" smooth="yes"/>
			<point x="316" y="731"/>
			<point x="239" y="710"/>
			<point x="183" y="664" type="curve" smooth="yes"/>
			<point x="136" y="625"/>
			<point x="84" y="575"/>
			<point x="74" y="459" type="curve"/>
			<point x="138" y="493" type="line"/>
			<point x="17" y="478" type="line"/>
			<point x="17" y="412" type="line"/>
			<point x="74" y="412" type="line"/>
			<point x="74" y="210" type="line" smooth="yes"/>
			<point x="74" y="140"/>
			<point x="73" y="70"/>
		</contour>
		<contour>
			<point x="27" y="0" type="line"/>
			<point x="312" y="0" type="line"/>
			<point x="312" y="51" type="line"/>
			<point x="229" y="71" type="line"/>
			<point x="120" y="71" type="line"/>
			<point x="27" y="51" type="line"/>
		</contour>
		<contour>
			<point x="170" y="412" type="line"/>
			<point x="556" y="412" type="line"/>
			<point x="556" y="487" type="line"/>
			<point x="170" y="487" type="line"/>
		</contour>
		<contour>
			<point x="381" y="0" type="curve"/>
			<point x="577" y="0" type="line"/>
			<point x="575" y="45"/>
			<point x="574" y="148"/>
			<point x="574" y="210" type="curve" smooth="yes"/>
			<point x="574" y="345" type="line"/>
			<point x="577" y="492" type="line"/>
			<point x="559" y="503" type="line"/>
			<point x="327" y="466" type="line"/>
			<point x="327" y="425" type="line"/>
			<point x="381" y="416" type="line"/>
			<point x="383" y="376"/>
			<point x="384" y="345"/>
			<point x="384" y="290" type="curve" smooth="yes"/>
			<point x="384" y="210" type="line" smooth="yes"/>
			<point x="384" y="148"/>
			<point x="383" y="45"/>
		</contour>
		<contour>
			<point x="338" y="0" type="line"/>
			<point x="617" y="0" type="line"/>
			<point x="617" y="51" type="line"/>
			<point x="521" y="71" type="line"/>
			<point x="424" y="71" type="line"/>
			<point x="338" y="51" type="line"/>
		</contour>
	</outline>
</glyph>
<glyph name="acutecmb.cap" format="1">
	<outline>
		<contour>
			<point x="-99" y="729" type="curve"/>
			<point x="-68" y="684" type="line"/>
			<point x="-12" y="708"/>
			<point x="43" y="730"/>
			<point x="100" y="754" type="curve" smooth="yes"/>
			<point x="151" y="775"/>
			<point x="159" y="804"/>
			<point x="159" y="823" type="curve" smooth="yes"/>
			<point x="159" y="851"/>
			<point x="134" y="881"/>
			<point x="98" y="881" type="curve" smooth="yes"/>
			<point x="72" y="881"/>
			<point x="52" y="872"/>
			<point x="18" y="840" type="curve" smooth="yes"/>
			<point x="-19" y="805"/>
			<point x="-60" y="767"/>
		</contour>
		<contour>
			<point name="_aboveUC" x="0" y="682" type="move"/>
		</contour>
	</outline>
</glyph>
<glyph name="brevehoi" format="1">
	<outline>
		<component base="hoicmb.cap" yOffset="-13"/>
		<component base="brevecmb.cap" yOffset="-145"/>
		<contour>
			<point name="_aboveLC" x="0" y="520" type="move"/>
		</contour>
	</outline>
</glyph>
<glyph name="caroncmb.cap" format="1">
	<outline>
		<contour>
			<point x="-147" y="892" type="line"/>
			<point x="-184" y="855" type="line"/>
			<point x="-45" y="696" type="line"/>
			<point x="45" y="696" type="line"/>
			<point x="185" y="855" type="line"/>
			<point x="147" y="892" type="line"/>
			<point x="-44" y="773" type="line"/>
			<point x="44" y="773" type="line"/>
		</contour>
		<contour>
			<point name="_aboveUC" x="0" y="682" type="move"/>
		</contour>
	</outline>
</glyph>
<glyph name="dotaccentcmb.cap" format="1">
	<outline>
		<contour>
			<point x="0" y="698" type="curve" smooth="yes"/>
			<point x="51" y="698"/>
			<point x="92" y="734"/>
			<point x="92" y="784" type="curve" smooth="yes"/>
			<point x="92" y="834"/>
			<point x="51" y="870"/>
			<point x="0" y="870" type="curve" smooth="yes"/>
			<point x="-51" y="870"/>
			<point x="-92" y="834"/>
			<point x="-92" y="784" type="curve" smooth="yes"/>
			<point x="-92" y="734"/>
			<point x="-51" y="698"/>
		</contour>
		<contour>
			<point name="_aboveUC" x="0" y="682" type="move"/>
		</contour>
	</outline>
</glyph>
<glyph name="five.cap" format="1">
	<advance width="560"/>
	<outline>
		<contour>
			<point x="115" y="357" type="line"/>
			<point x="179" y="357" type="line"/>
			<point x="196" y="620" type="line"/>
			<point x="148" y="512" type="line"/>
			<point x="510" y="512" type="line"/>
			<point x="510" y="652" type="line"/>
			<point x="128" y="652" type="line"/>
			<point x="107" y="335" type="line"/>
			<point x="135" y="310" type="line"/>
			<point x="168" y="318"/>
			<point x="186" y="321"/>
			<point x="220" y="321" type="curve" smooth="yes"/>
			<point x="298" y="321"/>
			<point x="337" y="271"/>
			<point x="337" y="176" type="curve" smooth="yes"/>
			<point x="337" y="89"/>
			<point x="287" y="39"/>
			<point x="212" y="39" type="curve" smooth="yes"/>
			<point x="198" y="39"/>
			<point x="189" y="42"/>
			<point x="166" y="53" type="curve"/>
			<point x="195" y="19" type="line"/>
			<point x="188" y="117" type="line" smooth="yes"/>
			<point x="183" y="182"/>
			<point x="156" y="208"/>
			<point x="111" y="208" type="curve" smooth="yes"/>
			<point x="82" y="208"/>
			<point x="53" y="192"/>
			<point x="41" y="159" type="curve"/>
			<point x="41" y="55"/>
			<point x="120" y="-16"/>
			<point x="259" y="-16" type="curve" smooth="yes"/>
			<point x="415" y="-16"/>
			<point x="537" y="50"/>
			<point x="537" y="196" type="curve" smooth="yes"/>
			<point x="537" y="329"/>
			<point x="441" y="399"/>
			<point x="279" y="399" type="curve" smooth="yes"/>
			<point x="219" y="399"/>
			<point x="167" y="392"/>
			<point x="115" y="372" type="curve"/>
		</contour>
	</outline>
</glyph>
<glyph name="four.cap" format="1">
	<advance width="560"/>
	<outline>
		<contour>
			<point x="527" y="124" type="line"/>
			<point x="527" y="254" type="line"/>
			<point x="68" y="254" type="line"/>
			<point x="88" y="219" type="line"/>
			<point x="312" y="553" type="line"/>
			<point x="275" y="553" type="line"/>
			<point x="275" y="0" type="line"/>
			<point x="440" y="0" type="line"/>
			<point x="440" y="652" type="line"/>
			<point x="308" y="652" type="line"/>
			<point x="20" y="231" type="line"/>
			<point x="20" y="124" type="line"/>
		</contour>
	</outline>
</glyph>
<glyph name="three.cap" format="1">
	<advance width="560"/>
	<outline>
		<contour>
			<point x="187" y="363" type="line"/>
			<point x="187" y="305" type="line"/>
			<point x="217" y="305" type="line" smooth="yes"/>
			<point x="292" y="305"/>
			<point x="335" y="262"/>
			<point x="335" y="177" type="curve" smooth="yes"/>
			<point x="335" y="80"/>
			<point x="290" y="39"/>
			<point x="206" y="39" type="curve" smooth="yes"/>
			<point x="182" y="39"/>
			<point x="169" y="44"/>
			<point x="147" y="54" type="curve"/>
			<point x="198" y="11" type="line"/>
			<point x="189" y="112" type="line" smooth="yes"/>
			<point x="182" y="188"/>
			<point x="153" y="209"/>
			<point x="109" y="209" type="curve" smooth="yes"/>
			<point x="83" y="209"/>
			<point x="54" y="195"/>
			<point x="42" y="160" type="curve"/>
			<point x="42" y="52"/>
			<point x="115" y="-16"/>
			<point x="270" y="-16" type="curve" smooth="yes"/>
			<point x="436" y="-16"/>
			<point x="530" y="62"/>
			<point x="530" y="168" type="curve" smooth="yes"/>
			<point x="530" y="271"/>
			<point x="476" y="333"/>
			<point x="313" y="347" type="curve"/>
			<point x="313" y="331" type="line"/>
			<point x="461" y="349"/>
			<point x="511" y="431"/>
			<point x="511" y="501" type="curve" smooth="yes"/>
			<point x="511" y="594"/>
			<point x="440" y="668"/>
			<point x="280" y="668" type="curve" smooth="yes"/>
			<point x="169" y="668"/>
			<point x="68" y="618"/>
			<point x="75" y="501" type="curve"/>
			<point x="87" y="484"/>
			<point x="109" y="471"/>
			<point x="134" y="471" type="curve" smooth="yes"/>
			<point x="171" y="471"/>
			<point x="208" y="489"/>
			<point x="215" y="543" type="curve" smooth="yes"/>
			<point x="228" y="640" type="line"/>
			<point x="161" y="600" type="line"/>
			<point x="191" y="609"/>
			<point x="215" y="614"/>
			<point x="232" y="614" type="curve" smooth="yes"/>
			<point x="291" y="614"/>
			<point x="326" y="576"/>
			<point x="326" y="494" type="curve" smooth="yes"/>
			<point x="326" y="398"/>
			<point x="283" y="363"/>
			<point x="212" y="363" type="curve" smooth="yes"/>
		</contour>
	</outline>
</glyph>
<glyph name="tildecmb.cap" format="1">
	<outline>
		<contour>
			<point x="-182" y="714" type="curve"/>
			<point x="-135" y="694" type="line"/>
			<point x="-123" y="725"/>
			<point x="-102" y="744"/>
			<point x="-74" y="744" type="curve" smooth="yes"/>
			<point x="-49" y="744"/>
			<point x="-28" y="730"/>
			<point x="-10" y="719" type="curve" smooth="yes"/>
			<point x="11" y="707"/>
			<point x="40" y="695"/>
			<point x="67" y="695" type="curve" smooth="yes"/>
			<point x="123" y="695"/>
			<point x="172" y="747"/>
			<point x="183" y="839" type="curve"/>
			<point x="136" y="859" type="line"/>
			<point x="124" y="827"/>
			<point x="102" y="808"/>
			<point x="74" y="808" type="curve" smooth="yes"/>
			<point x="50" y="808"/>
			<point x="28" y="822"/>
			<point x="10" y="833" type="curve" smooth="yes"/>
			<point x="-11" y="845"/>
			<point x="-34" y="857"/>
			<point x="-63" y="857" type="curve" smooth="yes"/>
			<point x="-122" y="857"/>
			<point x="-171" y="807"/>
		</contour>
		<contour>
			<point name="_aboveUC" x="0" y="682" type="move"/>
		</contour>
	</outline>
</glyph>
<glyph name="tonoscmb" format="1">
	<outline>
		<contour>
			<point x="-41" y="544" type="curve"/>
			<point x="19" y="526" type="line"/>
			<point x="31" y="546"/>
			<point x="44" y="567"/>
			<point x="54" y="587" type="curve" smooth="yes"/>
			<point x="92" y="662"/>
			<point x="111" y="698"/>
			<point x="111" y="727" type="curve" smooth="yes"/>
			<point x="111" y="775"/>
			<point x="76" y="790"/>
			<point x="42" y="790" type="curve" smooth="yes"/>
			<point x="-1" y="790"/>
			<point x="-24" y="765"/>
			<point x="-37" y="622" type="curve" smooth="yes"/>
			<point x="-39" y="597"/>
			<point x="-41" y="571"/>
		</contour>
		<contour>
			<point name="_aboveLC" x="0" y="520" type="move"/>
		</contour>
	</outline>
</glyph>
<glyph name="two.cap" format="1">
	<advance width="560"/>
	<outline>
		<contour>
			<point x="54" y="0" type="line"/>
			<point x="518" y="0" type="line"/>
			<point x="518" y="140" type="line"/>
			<point x="135" y="140" type="line"/>
			<point x="151" y="122" type="line"/>
			<point x="186" y="143"/>
			<point x="220" y="165"/>
			<point x="253" y="187" type="curve" smooth="yes"/>
			<point x="417" y="297"/>
			<point x="511" y="383"/>
			<point x="511" y="489" type="curve" smooth="yes"/>
			<point x="511" y="587"/>
			<point x="446" y="668"/>
			<point x="295" y="668" type="curve" smooth="yes"/>
			<point x="161" y="668"/>
			<point x="50" y="607"/>
			<point x="50" y="495" type="curve"/>
			<point x="63" y="468"/>
			<point x="90" y="451"/>
			<point x="121" y="451" type="curve" smooth="yes"/>
			<point x="153" y="451"/>
			<point x="192" y="466"/>
			<point x="202" y="542" type="curve" smooth="yes"/>
			<point x="215" y="640" type="line"/>
			<point x="133" y="592" type="line"/>
			<point x="171" y="610"/>
			<point x="196" y="614"/>
			<point x="227" y="614" type="curve" smooth="yes"/>
			<point x="285" y="614"/>
			<point x="321" y="568"/>
			<point x="321" y="486" type="curve" smooth="yes"/>
			<point x="321" y="386"/>
			<point x="272" y="323"/>
			<point x="181" y="227" type="curve" smooth="yes"/>
			<point x="139" y="184"/>
			<point x="97" y="141"/>
			<point x="54" y="99" type="curve"/>
		</contour>
	</outline>
</glyph>
<glyph name="zero.cap" format="1">
	<advance width="560"/>
	<outline>
		<contour>
			<point x="209" y="321" type="curve" smooth="yes"/>
			<point x="209" y="558"/>
			<point x="237" y="614"/>
			<point x="279" y="614" type="curve" smooth="yes"/>
			<point x="321" y="614"/>
			<point x="352" y="557"/>
			<point x="352" y="321" type="curve" smooth="yes"/>
			<point x="352" y="94"/>
			<point x="321" y="39"/>
			<point x="279" y="39" type="curve" smooth="yes"/>
			<point x="237" y="39"/>
			<point x="209" y="93"/>
		</contour>
		<contour>
			<point x="279" y="668" type="curve" smooth="yes"/>
			<point x="147" y="668"/>
			<point x="34" y="558"/>
			<point x="34" y="321" type="curve" smooth="yes"/>
			<point x="34" y="90"/>
			<point x="147" y="-16"/>
			<point x="279" y="-16" type="curve" smooth="yes"/>
			<point x="411" y="-16"/>
			<point x="527" y="90"/>
			<point x="527" y="321" type="curve" smooth="yes"/>
			<point x="527" y="558"/>
			<point x="411" y="668"/>
		</contour>
	</outline>
</glyph>
